<svg width="114" height="39" viewBox="0 0 114 39" fill="none" xmlns="http://www.w3.org/2000/svg">
<path d="M11.5781 33.9883C11.5781 34.9108 11.3538 35.6895 10.9053 36.3242C10.4567 36.959 9.80078 37.4414 8.9375 37.7715C8.08268 38.0931 7.0332 38.2539 5.78906 38.2539C4.80729 38.2539 3.96094 38.182 3.25 38.0381C2.54753 37.9027 1.88314 37.6911 1.25684 37.4033V34.8262C1.92546 35.1393 2.67448 35.4102 3.50391 35.6387C4.3418 35.8672 5.13314 35.9814 5.87793 35.9814C6.8597 35.9814 7.56641 35.8291 7.99805 35.5244C8.42969 35.2113 8.64551 34.7965 8.64551 34.2803C8.64551 33.9756 8.55664 33.7048 8.37891 33.4678C8.20964 33.2223 7.88802 32.9727 7.41406 32.7188C6.94857 32.4564 6.26302 32.1432 5.35742 31.7793C4.46875 31.4238 3.71973 31.0684 3.11035 30.7129C2.50098 30.3574 2.03971 29.93 1.72656 29.4307C1.41341 28.9229 1.25684 28.2754 1.25684 27.4883C1.25684 26.2441 1.74772 25.3005 2.72949 24.6572C3.71973 24.0055 5.02734 23.6797 6.65234 23.6797C7.51562 23.6797 8.32812 23.7686 9.08984 23.9463C9.86003 24.1156 10.6133 24.3652 11.3496 24.6953L10.4102 26.9424C9.77539 26.6631 9.13639 26.4346 8.49316 26.2568C7.8584 26.0706 7.21094 25.9775 6.55078 25.9775C5.7806 25.9775 5.19238 26.096 4.78613 26.333C4.38835 26.57 4.18945 26.9085 4.18945 27.3486C4.18945 27.6787 4.28678 27.958 4.48145 28.1865C4.67611 28.415 5.01042 28.6436 5.48438 28.8721C5.9668 29.1006 6.63542 29.3841 7.49023 29.7227C8.32812 30.0443 9.05176 30.3828 9.66113 30.7383C10.279 31.0853 10.7529 31.5127 11.083 32.0205C11.4131 32.5283 11.5781 33.1842 11.5781 33.9883ZM20.3125 23.6797C22.0898 23.6797 23.4313 24.0732 24.3369 24.8604C25.251 25.6475 25.708 26.8747 25.708 28.542V38H23.5879L23.0166 36.0068H22.915C22.5173 36.5146 22.1068 36.9336 21.6836 37.2637C21.2604 37.5938 20.7695 37.8392 20.2109 38C19.6608 38.1693 18.988 38.2539 18.1924 38.2539C17.3545 38.2539 16.6055 38.1016 15.9453 37.7969C15.2852 37.4837 14.7646 37.0098 14.3838 36.375C14.0029 35.7402 13.8125 34.9362 13.8125 33.9629C13.8125 32.5156 14.3499 31.4281 15.4248 30.7002C16.5081 29.9723 18.1416 29.5703 20.3252 29.4941L22.7627 29.4053V28.6689C22.7627 27.6956 22.5342 27.0016 22.0771 26.5869C21.6286 26.1722 20.9938 25.9648 20.1729 25.9648C19.4704 25.9648 18.7891 26.0664 18.1289 26.2695C17.4688 26.4727 16.8255 26.7223 16.1992 27.0186L15.2344 24.9111C15.9199 24.5472 16.6986 24.251 17.5703 24.0225C18.4505 23.7939 19.3646 23.6797 20.3125 23.6797ZM22.75 31.2842L20.9346 31.3477C19.445 31.3984 18.3997 31.6523 17.7988 32.1094C17.1979 32.5664 16.8975 33.1927 16.8975 33.9883C16.8975 34.6823 17.1048 35.1901 17.5195 35.5117C17.9342 35.8249 18.4801 35.9814 19.1572 35.9814C20.1898 35.9814 21.0446 35.6895 21.7217 35.1055C22.4072 34.513 22.75 33.6455 22.75 32.5029V31.2842ZM32.8809 38H29.8848V18.2461H32.8809V38ZM42.7451 23.6797C43.9977 23.6797 45.0726 23.9378 45.9697 24.4541C46.8669 24.9704 47.5566 25.7025 48.0391 26.6504C48.5215 27.5983 48.7627 28.7324 48.7627 30.0527V31.6523H39.3809C39.4147 33.015 39.7786 34.0645 40.4727 34.8008C41.1751 35.5371 42.1569 35.9053 43.418 35.9053C44.3151 35.9053 45.1191 35.8206 45.8301 35.6514C46.5495 35.4736 47.29 35.2155 48.0518 34.877V37.3018C47.3493 37.6318 46.6341 37.873 45.9062 38.0254C45.1784 38.1777 44.3066 38.2539 43.291 38.2539C41.9115 38.2539 40.6969 37.9873 39.6475 37.4541C38.6064 36.9124 37.7897 36.1084 37.1973 35.042C36.6133 33.9756 36.3213 32.651 36.3213 31.0684C36.3213 29.4941 36.5879 28.1569 37.1211 27.0566C37.6543 25.9564 38.4033 25.1185 39.3682 24.543C40.333 23.9674 41.4587 23.6797 42.7451 23.6797ZM42.7451 25.9268C41.8057 25.9268 41.0439 26.2314 40.46 26.8408C39.8844 27.4502 39.5459 28.3431 39.4443 29.5195H45.8428C45.8343 28.8171 45.7158 28.195 45.4873 27.6533C45.2673 27.1117 44.9287 26.6885 44.4717 26.3838C44.0231 26.0791 43.4476 25.9268 42.7451 25.9268ZM61.5342 38H50.8574V36.1592L57.9541 26.2441H51.2891V23.9463H61.3311V25.9775L54.374 35.7021H61.5342V38ZM67.5518 23.9463V38H64.5684V23.9463H67.5518ZM66.0791 18.5635C66.5361 18.5635 66.9297 18.6862 67.2598 18.9316C67.5983 19.1771 67.7676 19.6003 67.7676 20.2012C67.7676 20.7936 67.5983 21.2168 67.2598 21.4707C66.9297 21.7161 66.5361 21.8389 66.0791 21.8389C65.6051 21.8389 65.2031 21.7161 64.873 21.4707C64.5514 21.2168 64.3906 20.7936 64.3906 20.2012C64.3906 19.6003 64.5514 19.1771 64.873 18.9316C65.2031 18.6862 65.6051 18.5635 66.0791 18.5635ZM74.8262 38H71.8301V18.2461H74.8262V38ZM82.0879 38H79.0918V18.2461H82.0879V38ZM91.8633 23.6797C93.6406 23.6797 94.9821 24.0732 95.8877 24.8604C96.8018 25.6475 97.2588 26.8747 97.2588 28.542V38H95.1387L94.5674 36.0068H94.4658C94.068 36.5146 93.6576 36.9336 93.2344 37.2637C92.8112 37.5938 92.3203 37.8392 91.7617 38C91.2116 38.1693 90.5387 38.2539 89.7432 38.2539C88.9053 38.2539 88.1562 38.1016 87.4961 37.7969C86.8359 37.4837 86.3154 37.0098 85.9346 36.375C85.5537 35.7402 85.3633 34.9362 85.3633 33.9629C85.3633 32.5156 85.9007 31.4281 86.9756 30.7002C88.0589 29.9723 89.6924 29.5703 91.876 29.4941L94.3135 29.4053V28.6689C94.3135 27.6956 94.085 27.0016 93.6279 26.5869C93.1794 26.1722 92.5446 25.9648 91.7236 25.9648C91.0212 25.9648 90.3398 26.0664 89.6797 26.2695C89.0195 26.4727 88.3763 26.7223 87.75 27.0186L86.7852 24.9111C87.4707 24.5472 88.2493 24.251 89.1211 24.0225C90.0013 23.7939 90.9154 23.6797 91.8633 23.6797ZM94.3008 31.2842L92.4854 31.3477C90.9958 31.3984 89.9505 31.6523 89.3496 32.1094C88.7487 32.5664 88.4482 33.1927 88.4482 33.9883C88.4482 34.6823 88.6556 35.1901 89.0703 35.5117C89.485 35.8249 90.0309 35.9814 90.708 35.9814C91.7406 35.9814 92.5954 35.6895 93.2725 35.1055C93.958 34.513 94.3008 33.6455 94.3008 32.5029V31.2842Z" fill="black"/>
<path d="M94 11.72L95.2165 20.781C99.3144 21.8975 102.211 25.0601 100.999 33.3872C102.968 28.1225 103.26 22.4207 101.691 18.3413L100.377 20.6076C99.8609 19.1635 99.0751 17.9513 98.261 17.1342C97.447 16.317 96.7362 15.7933 95.9929 15.3418L96.3373 14.4013C97.4121 15.0541 98.441 15.8679 99.3557 17.0068C103.99 17.33 107.585 19.9003 106.745 28.7818C108.46 23.3691 108.463 17.7802 106.659 13.9716L105.421 16.3181C104.925 15.1957 104.252 14.2682 103.416 13.5038C102.086 12.4172 100.639 11.9486 99.1241 11.7398L99.3108 10.7428C101.075 10.9858 102.798 11.581 104.355 13.0813C108.505 12.6198 111.772 14.5108 111.963 22.3617C113.06 16.7409 112.392 11.4118 110.098 8.30983L109.138 10.9313C107.154 8.06578 103.647 7.22052 99.0295 8.78185L94.0001 11.7199L94 11.72Z" fill="black"/>
</svg>
