<svg width="138" height="65" viewBox="0 0 138 65" fill="none" xmlns="http://www.w3.org/2000/svg">
<path d="M16.0312 48.4453C16.0312 49.7227 15.7207 50.8008 15.0996 51.6797C14.4785 52.5586 13.5703 53.2266 12.375 53.6836C11.1914 54.1289 9.73828 54.3516 8.01562 54.3516C6.65625 54.3516 5.48438 54.252 4.5 54.0527C3.52734 53.8652 2.60742 53.5723 1.74023 53.1738V49.6055C2.66602 50.0391 3.70312 50.4141 4.85156 50.7305C6.01172 51.0469 7.10742 51.2051 8.13867 51.2051C9.49805 51.2051 10.4766 50.9941 11.0742 50.5723C11.6719 50.1387 11.9707 49.5645 11.9707 48.8496C11.9707 48.4277 11.8477 48.0527 11.6016 47.7246C11.3672 47.3848 10.9219 47.0391 10.2656 46.6875C9.62109 46.3242 8.67188 45.8906 7.41797 45.3867C6.1875 44.8945 5.15039 44.4023 4.30664 43.9102C3.46289 43.418 2.82422 42.8262 2.39062 42.1348C1.95703 41.4316 1.74023 40.5352 1.74023 39.4453C1.74023 37.7227 2.41992 36.416 3.7793 35.5254C5.15039 34.623 6.96094 34.1719 9.21094 34.1719C10.4062 34.1719 11.5312 34.2949 12.5859 34.541C13.6523 34.7754 14.6953 35.1211 15.7148 35.5781L14.4141 38.6895C13.5352 38.3027 12.6504 37.9863 11.7598 37.7402C10.8809 37.4824 9.98438 37.3535 9.07031 37.3535C8.00391 37.3535 7.18945 37.5176 6.62695 37.8457C6.07617 38.1738 5.80078 38.6426 5.80078 39.252C5.80078 39.709 5.93555 40.0957 6.20508 40.4121C6.47461 40.7285 6.9375 41.0449 7.59375 41.3613C8.26172 41.6777 9.1875 42.0703 10.3711 42.5391C11.5312 42.9844 12.5332 43.4531 13.377 43.9453C14.2324 44.4258 14.8887 45.0176 15.3457 45.7207C15.8027 46.4238 16.0312 47.332 16.0312 48.4453ZM28.125 34.1719C30.5859 34.1719 32.4434 34.7168 33.6973 35.8066C34.9629 36.8965 35.5957 38.5957 35.5957 40.9043V54H32.6602L31.8691 51.2402H31.7285C31.1777 51.9434 30.6094 52.5234 30.0234 52.9805C29.4375 53.4375 28.7578 53.7773 27.9844 54C27.2227 54.2344 26.291 54.3516 25.1895 54.3516C24.0293 54.3516 22.9922 54.1406 22.0781 53.7188C21.1641 53.2852 20.4434 52.6289 19.916 51.75C19.3887 50.8711 19.125 49.7578 19.125 48.4102C19.125 46.4062 19.8691 44.9004 21.3574 43.8926C22.8574 42.8848 25.1191 42.3281 28.1426 42.2227L31.5176 42.0996V41.0801C31.5176 39.7324 31.2012 38.7715 30.5684 38.1973C29.9473 37.623 29.0684 37.3359 27.9316 37.3359C26.959 37.3359 26.0156 37.4766 25.1016 37.7578C24.1875 38.0391 23.2969 38.3848 22.4297 38.7949L21.0938 35.877C22.043 35.373 23.1211 34.9629 24.3281 34.6465C25.5469 34.3301 26.8125 34.1719 28.125 34.1719ZM31.5 44.7012L28.9863 44.7891C26.9238 44.8594 25.4766 45.2109 24.6445 45.8438C23.8125 46.4766 23.3965 47.3438 23.3965 48.4453C23.3965 49.4062 23.6836 50.1094 24.2578 50.5547C24.832 50.9883 25.5879 51.2051 26.5254 51.2051C27.9551 51.2051 29.1387 50.8008 30.0762 49.9922C31.0254 49.1719 31.5 47.9707 31.5 46.3887V44.7012ZM45.5273 54H41.3789V26.6484H45.5273V54ZM59.1855 34.1719C60.9199 34.1719 62.4082 34.5293 63.6504 35.2441C64.8926 35.959 65.8477 36.9727 66.5156 38.2852C67.1836 39.5977 67.5176 41.168 67.5176 42.9961V45.2109H54.5273C54.5742 47.0977 55.0781 48.5508 56.0391 49.5703C57.0117 50.5898 58.3711 51.0996 60.1172 51.0996C61.3594 51.0996 62.4727 50.9824 63.457 50.748C64.4531 50.502 65.4785 50.1445 66.5332 49.6758V53.0332C65.5605 53.4902 64.5703 53.8242 63.5625 54.0352C62.5547 54.2461 61.3477 54.3516 59.9414 54.3516C58.0312 54.3516 56.3496 53.9824 54.8965 53.2441C53.4551 52.4941 52.3242 51.3809 51.5039 49.9043C50.6953 48.4277 50.291 46.5938 50.291 44.4023C50.291 42.2227 50.6602 40.3711 51.3984 38.8477C52.1367 37.3242 53.1738 36.1641 54.5098 35.3672C55.8457 34.5703 57.4043 34.1719 59.1855 34.1719ZM59.1855 37.2832C57.8848 37.2832 56.8301 37.7051 56.0215 38.5488C55.2246 39.3926 54.7559 40.6289 54.6152 42.2578H63.4746C63.4629 41.2852 63.2988 40.4238 62.9824 39.6738C62.6777 38.9238 62.209 38.3379 61.5762 37.916C60.9551 37.4941 60.1582 37.2832 59.1855 37.2832ZM85.2012 54H70.418V51.4512L80.2441 37.7227H71.0156V34.541H84.9199V37.3535L75.2871 50.8184H85.2012V54ZM93.5332 34.541V54H89.4023V34.541H93.5332ZM91.4941 27.0879C92.127 27.0879 92.6719 27.2578 93.1289 27.5977C93.5977 27.9375 93.832 28.5234 93.832 29.3555C93.832 30.1758 93.5977 30.7617 93.1289 31.1133C92.6719 31.4531 92.127 31.623 91.4941 31.623C90.8379 31.623 90.2812 31.4531 89.8242 31.1133C89.3789 30.7617 89.1562 30.1758 89.1562 29.3555C89.1562 28.5234 89.3789 27.9375 89.8242 27.5977C90.2812 27.2578 90.8379 27.0879 91.4941 27.0879ZM103.605 54H99.457V26.6484H103.605V54ZM113.66 54H109.512V26.6484H113.66V54ZM127.195 34.1719C129.656 34.1719 131.514 34.7168 132.768 35.8066C134.033 36.8965 134.666 38.5957 134.666 40.9043V54H131.73L130.939 51.2402H130.799C130.248 51.9434 129.68 52.5234 129.094 52.9805C128.508 53.4375 127.828 53.7773 127.055 54C126.293 54.2344 125.361 54.3516 124.26 54.3516C123.1 54.3516 122.062 54.1406 121.148 53.7188C120.234 53.2852 119.514 52.6289 118.986 51.75C118.459 50.8711 118.195 49.7578 118.195 48.4102C118.195 46.4062 118.939 44.9004 120.428 43.8926C121.928 42.8848 124.189 42.3281 127.213 42.2227L130.588 42.0996V41.0801C130.588 39.7324 130.271 38.7715 129.639 38.1973C129.018 37.623 128.139 37.3359 127.002 37.3359C126.029 37.3359 125.086 37.4766 124.172 37.7578C123.258 38.0391 122.367 38.3848 121.5 38.7949L120.164 35.877C121.113 35.373 122.191 34.9629 123.398 34.6465C124.617 34.3301 125.883 34.1719 127.195 34.1719ZM130.57 44.7012L128.057 44.7891C125.994 44.8594 124.547 45.2109 123.715 45.8438C122.883 46.4766 122.467 47.3438 122.467 48.4453C122.467 49.4062 122.754 50.1094 123.328 50.5547C123.902 50.9883 124.658 51.2051 125.596 51.2051C127.025 51.2051 128.209 50.8008 129.146 49.9922C130.096 49.1719 130.57 47.9707 130.57 46.3887V44.7012Z" fill="black"/>
<path d="M53.9326 0.888123V12.3131C60.5217 16.4175 64.6477 22.0938 60.7584 31.0017C65.2244 26.1911 66.9901 19.7244 65.2846 13.8827L62.5835 15.6348C62.0464 13.5942 61.0066 11.6401 59.831 10.1287C58.6555 8.61737 57.5866 7.51956 56.4471 6.48394L57.2327 5.61956C58.8802 7.11694 60.4151 8.77119 61.6865 10.7275C69.348 14.2705 74.7732 19.7316 71.3802 29.5417C75.4557 24.3847 76.7131 17.8523 74.5559 12.1672L71.9642 14.0653C71.3877 12.4141 70.4717 10.8698 69.2483 9.40519C67.2717 7.22625 64.9618 5.69 62.4802 4.41119L63.0152 3.37306C65.9043 4.86181 68.6481 6.73512 70.9097 9.55244C77.9396 11.8475 82.9686 16.29 81.5275 25.5994C84.6176 19.7767 84.6977 13.09 81.5641 7.89637L79.3741 10.3056C76.7047 5.6 71.0412 2.21644 62.985 0.888123H53.9327H53.9326Z" fill="black"/>
</svg>
