<svg width="40" height="40" viewBox="0 0 40 40" fill="none" xmlns="http://www.w3.org/2000/svg">
<g clip-path="url(#clip0_26_202)">
<path fill-rule="evenodd" clip-rule="evenodd" d="M19.8551 12.8609H23.3405C23.5074 12.8609 23.6486 12.9059 23.8005 12.9328C23.5028 11.887 22.5986 11.175 21.4024 11.175H17.9186L16.3936 17.9208H18.7131L19.8551 12.8609Z" fill="black"/>
<path fill-rule="evenodd" clip-rule="evenodd" d="M19.8639 17.9073C21.6354 17.8381 23.375 16.3777 23.7989 14.5476C23.8305 14.4307 23.8378 14.3207 23.8559 14.208H20.6978L19.8639 17.9073Z" fill="black"/>
<path fill-rule="evenodd" clip-rule="evenodd" d="M0 0V40H40V0H0ZM11.8924 6.15385H24.0182C27.5728 6.15385 31.7121 8.77539 30.4801 14.5461C29.3894 19.6438 25.324 22.6426 20.4605 22.6426H15.3778L13.6351 30.8142H6.51965L11.8924 6.15385ZM33.2593 17.5796C32.17 22.6773 28.1015 25.6761 23.24 25.6761H18.1574L16.4147 33.8462H9.29925L9.59499 32.4985H15.5731L17.3143 24.3269H22.3985C27.2604 24.3269 31.3273 21.3297 32.4165 16.2319C32.8254 14.3207 32.6358 12.7631 32.0831 11.5219C33.2354 12.8981 33.8335 14.8935 33.2593 17.5796Z" fill="black"/>
</g>
<defs>
<clipPath id="clip0_26_202">
<rect width="40" height="40" fill="white"/>
</clipPath>
</defs>
</svg>
