<svg width="40" height="40" viewBox="0 0 40 40" fill="none" xmlns="http://www.w3.org/2000/svg">
<g clip-path="url(#clip0_26_222)">
<path fill-rule="evenodd" clip-rule="evenodd" d="M0 0V40H40V0H0ZM31.0111 14.3524C31.0219 14.5962 31.0274 14.8413 31.0274 15.0874C31.0274 22.5953 25.313 31.2523 14.8628 31.2523C11.6543 31.2523 8.66796 30.3119 6.15376 28.6996C6.59824 28.7524 7.05037 28.7793 7.5091 28.7793C10.1709 28.7793 12.6206 27.8711 14.5651 26.347C12.0789 26.3014 9.98066 24.6587 9.25758 22.4015C9.60466 22.468 9.96062 22.5037 10.3267 22.5037C10.8448 22.5037 11.3468 22.4339 11.8236 22.3044C9.22462 21.7822 7.26611 19.4862 7.26611 16.7335C7.26611 16.7095 7.26611 16.6857 7.26664 16.662C8.03253 17.0875 8.90848 17.3431 9.83991 17.3727C8.31534 16.3538 7.31262 14.6148 7.31262 12.6439C7.31262 11.6026 7.59279 10.6267 8.08193 9.78743C10.884 13.2249 15.0703 15.4866 19.7921 15.7238C19.6951 15.3078 19.6447 14.8741 19.6447 14.4289C19.6447 11.2915 22.1887 8.74778 25.3261 8.74778C26.9603 8.74778 28.4368 9.43763 29.4731 10.5417C30.7671 10.2872 31.9831 9.81415 33.0809 9.16317C32.6568 10.4899 31.756 11.6031 30.5829 12.3064C31.7322 12.169 32.8271 11.8635 33.846 11.4116C33.0845 12.5509 32.1213 13.5516 31.0111 14.3524Z" fill="black"/>
</g>
<defs>
<clipPath id="clip0_26_222">
<rect width="40" height="40" fill="white"/>
</clipPath>
</defs>
</svg>
