<svg width="28" height="28" viewBox="0 0 28 28" fill="none" xmlns="http://www.w3.org/2000/svg">
<g clip-path="url(#clip0_26_470)">
<path d="M20.1451 17.5918L14.5738 13.6959V7.00001C14.5738 6.68444 14.3156 6.42624 14 6.42624C13.6845 6.42624 13.4263 6.68444 13.4263 7.00001V14C13.4263 14.1894 13.5181 14.3615 13.673 14.4705L19.491 18.5385C19.5886 18.6074 19.7033 18.6418 19.8181 18.6418C19.9959 18.6418 20.1738 18.5557 20.2886 18.3894C20.4664 18.1312 20.4033 17.7754 20.1451 17.5918Z" fill="#FF9F29"/>
<path d="M23.8918 4.1082C21.241 1.45738 17.7295 0 14 0C10.2705 0 6.75902 1.45738 4.1082 4.1082C1.45738 6.75902 0 10.2705 0 14C0 17.7295 1.45738 21.241 4.1082 23.8918C6.75902 26.5426 10.2705 28 14 28C17.7295 28 21.241 26.5426 23.8918 23.8918C26.5426 21.241 28 17.7295 28 14C28 10.2705 26.5426 6.75902 23.8918 4.1082ZM14.5738 26.841V24.5C14.5738 24.1844 14.3156 23.9262 14 23.9262C13.6844 23.9262 13.4262 24.1844 13.4262 24.5V26.841C6.79344 26.5484 1.45164 21.2066 1.15902 14.5738H3.5C3.81557 14.5738 4.07377 14.3156 4.07377 14C4.07377 13.6844 3.81557 13.4262 3.5 13.4262H1.15902C1.45164 6.79344 6.79344 1.45164 13.4262 1.15902V3.5C13.4262 3.81557 13.6844 4.07377 14 4.07377C14.3156 4.07377 14.5738 3.81557 14.5738 3.5V1.15902C21.2066 1.45164 26.5484 6.79344 26.841 13.4262H24.5C24.1844 13.4262 23.9262 13.6844 23.9262 14C23.9262 14.3156 24.1844 14.5738 24.5 14.5738H26.841C26.5484 21.2066 21.2066 26.5484 14.5738 26.841Z" fill="#FF9F29"/>
</g>
<defs>
<clipPath id="clip0_26_470">
<rect width="28" height="28" fill="white"/>
</clipPath>
</defs>
</svg>
