<svg width="39" height="39" viewBox="0 0 39 39" fill="none" xmlns="http://www.w3.org/2000/svg">
<g clip-path="url(#clip0_26_502)">
<path d="M5.3625 23.205L2.68121 28.9148L9.38435 29.6437L9.75 36.4492L15.9656 33.5327L20.1094 39L23.7656 33.5327L29.4937 36.3272L29.9812 29.5229L36.6844 29.4011L34.2469 23.8119L39 19.561L33.8812 15.4306L37.1719 9.72079L30.225 9.11382L29.6156 2.43145L23.7656 5.22608L19.7438 0L15.9656 5.34547L9.87185 2.18647L9.50621 9.11263L2.68121 9.477L5.24057 16.0375L0 19.1965L5.3625 23.205ZM7.51116 15.1515L6.17664 11.7305L9.63547 11.5453L11.8243 11.4283L11.9401 9.23942L12.1059 6.09021L14.8432 7.50885L16.7299 8.48632L17.9559 6.75082L19.8279 4.10248L21.834 6.70943L23.0368 8.2719L24.8162 7.42242L27.506 6.13788L27.7973 9.33222L27.9826 11.3614L30.013 11.5394L33.1514 11.8136L31.7693 14.2121L30.7285 16.0171L32.3507 17.326L35.2379 19.655L32.6224 21.995L31.3086 23.1699L32.013 24.7859L32.9917 27.0296L29.9375 27.0845L27.7097 27.1247L27.55 29.3477L27.3209 32.553L24.8346 31.3403L22.9224 30.408L21.7403 32.1763L19.9865 34.7991L17.9098 32.0582L16.7178 30.486L14.9311 31.3245L11.9903 32.7041L11.8184 29.5123L11.7075 27.4441L9.6478 27.2198L6.33885 26.8614L7.56855 24.2411L8.41318 22.4423L6.8215 21.2528L4.36084 19.4124L6.49851 18.1243L8.25718 17.0639L7.51116 15.1515Z" fill="black"/>
<path d="M18.0583 23.5085C17.7755 23.1343 17.5818 22.6907 17.4781 22.1752L14.959 22.4457C15.1515 23.7144 15.5952 24.6967 16.291 25.3914C16.9869 26.0861 17.89 26.5017 19.0052 26.6369V28.3931H20.4043V26.5881C21.6597 26.409 22.6395 25.9191 23.3452 25.1208C24.0496 24.3225 24.4018 23.3402 24.4018 22.1751C24.4018 21.1331 24.1227 20.2787 23.5621 19.6121C23.0028 18.9466 21.9498 18.4043 20.4043 17.9851V14.2094C21.0295 14.4799 21.4147 14.9955 21.5634 15.7547L24.0057 15.4366C23.8387 14.4714 23.4524 13.6999 22.8479 13.1246C22.2422 12.5481 21.428 12.1996 20.4043 12.0765V11.1198H19.0052V12.0753C17.8985 12.185 17.0113 12.5981 16.3447 13.316C15.678 14.0338 15.3453 14.9211 15.3453 15.9765C15.3453 17.0197 15.6403 17.9058 16.2301 18.637C16.8188 19.367 17.7438 19.913 19.0053 20.2738V24.3201C18.6567 24.152 18.3411 23.8814 18.0583 23.5085ZM20.4044 20.6883C20.9846 20.8565 21.4001 21.0953 21.6548 21.4073C21.9095 21.7193 22.0351 22.091 22.0351 22.5225C22.0351 23.0051 21.884 23.4256 21.5817 23.7827C21.2795 24.1398 20.8871 24.364 20.4032 24.4542V20.6883H20.4044ZM18.0681 16.8127C17.8621 16.5202 17.7597 16.2033 17.7597 15.862C17.7597 15.4891 17.8719 15.1478 18.0961 14.8382C18.3228 14.5299 18.6251 14.3105 19.0041 14.1814V17.5219C18.5861 17.3416 18.2741 17.1052 18.0681 16.8127Z" fill="black"/>
</g>
<defs>
<clipPath id="clip0_26_502">
<rect width="39" height="39" fill="white"/>
</clipPath>
</defs>
</svg>
